inDegrees=yes
name=ik_S57_A01_T02
DataType=double
version=3
OpenSimVersion=4.3-2021-08-27-4bc7ad9
endheader
time	pelvis_tilt	pelvis_list	pelvis_rotation	pelvis_tx	pelvis_ty	pelvis_tz	hip_flexion_r	hip_adduction_r	hip_rotation_r	knee_angle_r	knee_angle_r_beta	ankle_angle_r	subtalar_angle_r	mtp_angle_r	hip_flexion_l	hip_adduction_l	hip_rotation_l	knee_angle_l	knee_angle_l_beta	ankle_angle_l	subtalar_angle_l	mtp_angle_l	lumbar_extension	lumbar_bending	lumbar_rotation	arm_flex_r	arm_add_r	arm_rot_r	elbow_flex_r	pro_sup_r	wrist_flex_r	wrist_dev_r	arm_flex_l	arm_add_l	arm_rot_l	elbow_flex_l	pro_sup_l	wrist_flex_l	wrist_dev_l
8.819999999999901	-1.834158197152837	1.024538880508258	94.03211008267928	0	0.9399999999999999	0	13.68822247884584	0.3314732147473732	-5.901572460170441	-9.451978356217802	-0.1649681431432421	0	0	0	-9.879980535549212	7.667608266629808	9.99642814413955	6.3461254299242	0.110760783496718	0	0	0	0	0	0	30.34442867303408	-30.34442867303408	4.271505268535519	75.00338278082208	85.72849497126707	0	0	30.34442867303408	-30.34442867303408	4.271505268535519	75.00338278082208	85.72849497113036	0	0
8.8399999999999	-1.797407280199104	0.8673988927456077	94.32864770442346	0	0.9399999999999999	0	13.87900574352666	0.6911207199170166	-5.713219341919694	-9.360066048665473	-0.1633639707533483	0	0	0	-9.91248396271741	7.363337230135416	9.59259932777292	8.505819943886003	0.1484545636026101	0	0	0	0	0	0	30.34802596366067	-30.34802596366067	4.27186145105931	75.00832452068263	85.7281387887619	0	0	30.34802596366067	-30.34802596366067	4.27186145105931	75.00832452068263	85.72813878862524	0	0
8.8599999999999	-1.732499667839592	0.6737085561099772	95.06292999442675	0	0.9399999999999999	0	13.87897180237015	1.355613760830644	-5.733886212723315	-9.551235028856846	-0.1667004988853676	0	0	0	-9.770177204083321	6.898006496991677	9.65491913481854	10.9459837891043	0.1910434569897946	0	0	0	0	0	0	30.3517473190696	-30.3517473190696	4.272229831798245	75.01343542051123	85.72777040804212	0	0	30.3517473190696	-30.3517473190696	4.272229831798245	75.01343542051123	85.72777040790552	0	0
8.8799999999999	-1.73458640717345	0.6521577233141558	95.06647522696814	0	0.9399999999999999	0	12.65549372131625	1.953866743577446	-5.741774783892732	-9.720016224794042	-0.1696462864699253	0	0	0	-9.413914128125345	6.506610765130356	9.205948209841251	13.80071297117588	0.2408678804697083	0	0	0	0	0	0	30.35593395266022	-30.35593395266022	4.272643596758422	75.0191756250474	85.72735664310353	0	0	30.35593395266022	-30.35593395266022	4.272643596758422	75.0191756250474	85.72735664296705	0	0
8.899999999999899	-1.734442434270288	0.6782407960084588	95.0639483862129	0	0.9399999999999999	0	10.40249617954947	1.570475288131697	-8.694447546726137	-9.143225416431525	-0.1595793877687598	0	0	0	-8.771659994842812	6.091009169313666	9.206344277923524	14.31111897532149	0.2497761457639971	0	0	0	0	0	0	30.39241279093563	-30.39241279093563	4.275778849424424	75.06245754771048	85.72422139059759	0	0	30.39241279093563	-30.39241279093563	4.275778849424424	75.06245754771048	85.72422139046174	0	0
8.919999999999899	-1.727925540998416	0.6780159739658765	95.06339345839702	0	0.9399999999999999	0	8.394832567080337	1.773171020646978	-9.993326647632149	-8.97687695305145	-0.1566760593771442	0	0	0	-7.537572774691571	5.04850799760076	8.580033695001573	21.15267657961903	0.3691838519238445	0	0	0	0	0	0	30.57663513200501	-30.57663513200501	4.291908833372577	75.28525204927101	85.70809140747537	0	0	30.57663513200501	-30.57663513200501	4.291908833372577	75.28525204927101	85.70809140734259	0	0
8.939999999999898	-1.732104716124472	0.6733680294645036	95.08810398848392	0	0.9399999999999999	0	9.089169277730777	1.399214256615674	-8.312825005340519	-7.264749430299051	-0.1267937968911007	0	0	0	-5.77278836148798	3.93549825946659	8.211247419569146	26.08650050388469	0.4552953241159476	0	0	0	0	0	0	30.58703331563612	-30.58703331563612	4.292924875444633	75.2993366789654	85.70707536545623	0	0	30.58703331563612	-30.58703331563612	4.292924875444633	75.2993366789654	85.70707536532362	0	0
8.959999999999898	0.5875442386874745	0.3529447381525557	94.06902234674469	0	0.9399999999999999	0	11.00418864845083	3.403999191259711	-5.525290106650306	-4.886486200997162	-0.08528527306066989	0	0	0	-3.076273328553869	0.5883991803882443	6.605194049872273	31.94280614584352	0.5575071395712494	0	0	0	0	0	0	30.76214138158543	-30.76214138158543	4.307542880153358	75.50090962521105	85.69245736149017	0	0	30.76214138158543	-30.76214138158543	4.307542880153358	75.50090962521105	85.69245736136035	0	0
8.979999999999897	0.9556285379346231	0.5532499244215238	93.81419789469858	0	0.9399999999999999	0	12.11801975902941	4.420338707377316	-4.335827008112109	-2.569900187787943	-0.04485321972452017	0	0	0	-0.8924078251641209	-0.6726400095286844	6.357306857139831	38.16089821298034	0.6660333193349273	0	0	0	0	0	0	30.94112595062115	-30.94112595062115	4.322337762744254	75.70484782942845	85.67766247964961	0	0	30.94112595062115	-30.94112595062115	4.322337762744254	75.70484782942845	85.67766247952262	0	0
8.999999999999897	1.156525509040621	0.6785091773915826	94.25929096448694	0	0.9399999999999999	0	11.23381627786665	4.785555623723758	-5.25495579875155	-2.338391992505906	-0.04081263947149864	0	0	0	1.465685816067057	-1.553547885370541	6.419899000793288	44.13944044227937	0.7703785657057172	0	0	0	0	0	0	31.12511070833888	-31.12511070833888	4.337755914401048	75.91744323181454	85.662244328776	0	0	31.12511070833888	-31.12511070833888	4.337755914401048	75.91744323181454	85.66224432865195	0	0
9.019999999999897	1.292663770006128	0.9384361340168323	94.95907711982176	0	0.9399999999999999	0	8.537403090386496	4.47560623742038	-8.608242566045254	-2.946692119597771	-0.05142947952955162	0	0	0	1.26079218740982	-1.764349799607846	7.181448413574961	46.4745060715427	0.8111331491865155	0	0	0	0	0	0	31.14687102885335	-31.14687102885335	4.339603228705447	75.94292564155496	85.66039701456573	0	0	31.14687102885335	-31.14687102885335	4.339603228705447	75.94292564155496	85.66039701444188	0	0
9.039999999999896	1.392372529626177	1.225698225064182	95.62111259016878	0	0.9399999999999999	0	4.106582325074616	4.855096341131626	-7.933446470732946	-6.119200585556698	-0.1068001978079293	0	0	0	3.123299565306233	-2.55011930699523	6.627581468283448	50.05031070397855	0.8735427134305866	0	0	0	0	0	0	31.15388490625964	-31.15388490625964	4.34025608228819	75.95195390717031	85.65974416101669	0	0	31.15388490625964	-31.15388490625964	4.34025608228819	75.95195390717031	85.65974416089293	0	0
